<!--?xml version="1.0" encoding="utf-8"?-->
<!-- Generator: Adobe Illustrator 18.1.1, SVG Export Plug-In . SVG Version: 6.00 Build 0)  -->

<svg version="1.1" id="_x32_" xmlns="http://www.w3.org/2000/svg" xmlns:xlink="http://www.w3.org/1999/xlink" x="0px" y="0px" viewBox="0 0 512 512" style="width: 256px; height: 256px; opacity: 1;" xml:space="preserve">
<style type="text/css">
	.st0{fill:#4B4B4B;}
</style>
<g>
	<path class="st0" d="M201.819,390.942c-4.235,0-38.314,38.31-38.314,69.445c0,21.154,17.157,38.31,38.314,38.31
		c21.16,0,38.317-17.156,38.317-38.31C240.136,425.657,206.053,390.942,201.819,390.942z M201.819,485.75
		c-8.459,0-15.32-6.865-15.32-15.327c0-12.445,13.629-27.758,15.32-27.758c1.692,0,15.316,13.879,15.316,27.758
		C217.135,478.885,210.277,485.75,201.819,485.75z" style="fill: white;"></path>
	<path class="st0" d="M310.181,390.942c-4.234,0-38.318,38.31-38.318,69.445c0,21.154,17.156,38.31,38.318,38.31
		c21.158,0,38.314-17.156,38.314-38.31C348.496,425.657,314.415,390.942,310.181,390.942z M310.181,485.75
		c-8.461,0-15.32-6.865-15.32-15.327c0-12.445,13.625-27.758,15.32-27.758c1.692,0,15.317,13.879,15.317,27.758
		C325.498,478.885,318.639,485.75,310.181,485.75z" style="fill: white;"></path>
	<path class="st0" d="M439.786,393.661c-4.018-1.328-48.404,24.354-58.175,53.913c-6.643,20.087,4.262,41.764,24.35,48.404
		c20.091,6.639,41.764-4.26,48.407-24.354C465.267,438.653,443.806,394.989,439.786,393.661z M429.379,473.941
		c-2.656,8.038-11.319,12.389-19.353,9.733c-8.031-2.656-12.389-11.316-9.736-19.353c3.909-11.817,21.652-22.079,23.262-21.55
		C425.159,443.301,433.737,460.761,429.379,473.941z" style="fill: white;"></path>
	<path class="st0" d="M72.21,393.661c-4.018,1.328-25.476,44.992-14.578,77.963c6.643,20.094,28.317,30.993,48.408,24.354
		c20.087-6.64,30.993-28.317,24.35-48.404C120.617,418.015,76.232,392.333,72.21,393.661z M101.97,483.674
		c-8.035,2.656-16.694-1.695-19.35-9.733c-4.358-13.18,4.22-30.64,5.828-31.17c1.606-0.53,19.352,9.733,23.259,21.55
		C114.363,472.358,110.004,481.018,101.97,483.674z" style="fill: white;"></path>
	<path class="st0" d="M485.764,169.449c-3.766,0-24.648,0-37.279,0v-12.262v-0.212v-23.746c0.003-7.261-1.48-14.254-4.16-20.589
		c-4.026-9.514-10.715-17.56-19.148-23.259c-8.43-5.707-18.675-9.048-29.584-9.041H279.238V62.131h7.098
		c13.488,0,24.418-10.934,24.418-24.425c0-13.477-10.93-24.403-24.418-24.403h-60.673c-13.486,0-24.416,10.926-24.416,24.403
		c0,13.491,10.93,24.425,24.416,24.425h7.099V80.34H116.408c-7.268,0-14.257,1.476-20.593,4.153
		c-9.51,4.026-17.559,10.722-23.262,19.155c-5.7,8.427-9.044,18.675-9.037,29.581v23.746v0.212v12.262c-12.633,0-33.515,0-37.279,0
		C11.746,169.449,0,181.195,0,195.681c0,14.493,11.746,26.233,26.236,26.233c12.862,0,30.431,7.784,37.279,23.294v50.148
		c-0.004,12.855,2.61,25.159,7.335,36.326c7.094,16.761,18.908,30.986,33.793,41.044c14.878,10.058,32.897,15.949,52.179,15.942
		h198.351c12.851,0.007,25.155-2.606,36.326-7.338c16.76-7.092,30.986-18.901,41.044-33.79c10.058-14.875,15.948-32.9,15.942-52.182
		v-50.148c6.847-15.51,24.416-23.294,37.279-23.294c14.49,0,26.236-11.74,26.236-26.233
		C512,181.195,500.254,169.449,485.764,169.449z M414.494,295.356c-0.007,8.257-1.66,15.991-4.655,23.09
		c-4.482,10.609-12.036,19.706-21.514,26.105c-9.504,6.407-20.78,10.115-33.151,10.115H156.823c-8.257,0-15.991-1.652-23.078-4.648
		h-0.004c-10.616-4.485-19.721-12.036-26.116-21.514c-6.402-9.493-10.107-20.78-10.118-33.154V181.922h316.987V295.356z
		 M414.494,156.975H97.506v-23.746c0.004-2.684,0.523-5.079,1.48-7.36c1.409-3.348,3.842-6.286,6.865-8.328
		c3.069-2.048,6.54-3.2,10.566-3.221h279.175c2.673,0.014,5.074,0.53,7.353,1.484c3.354,1.412,6.3,3.856,8.334,6.88l-0.007-0.014
		c2.055,3.072,3.207,6.548,3.221,10.566V156.975z" style="fill: white;"></path>
</g>
</svg>
